<svg width="13" height="13" viewBox="0 0 13 13" fill="none" xmlns="http://www.w3.org/2000/svg">
<path d="M4.6875 0C5.939 0 7.11759 0.487199 8.00195 1.37305C8.88632 2.25898 9.37499 3.43438 9.375 4.6875C9.375 5.73435 9.03494 6.72989 8.40527 7.54395L12.4629 11.6016C12.4748 11.6134 12.4838 11.628 12.4902 11.6436C12.4966 11.659 12.5 11.6756 12.5 11.6924C12.5 11.7092 12.4967 11.7257 12.4902 11.7412C12.4838 11.7567 12.4748 11.7713 12.4629 11.7832L11.7812 12.4629C11.7695 12.4746 11.7555 12.4839 11.7402 12.4902C11.7247 12.4967 11.7073 12.5 11.6904 12.5C11.6738 12.4999 11.657 12.4966 11.6416 12.4902C11.6263 12.4839 11.6124 12.4746 11.6006 12.4629L7.54199 8.40625C6.72798 9.03424 5.73426 9.375 4.6875 9.375C3.43464 9.37493 2.2583 8.88761 1.37402 8.00195C0.489648 7.11758 0 5.93906 0 4.6875C6.3283e-06 3.43438 0.488092 2.25742 1.37402 1.37305C2.2583 0.488967 3.43621 6.77239e-05 4.6875 0ZM4.6875 1.1875C3.75322 1.18757 2.87533 1.55201 2.21289 2.21289C1.55203 2.87381 1.18751 3.75319 1.1875 4.6875C1.1875 5.62181 1.55204 6.49963 2.21289 7.16211C2.87533 7.82299 3.75322 8.18743 4.6875 8.1875C5.62187 8.1875 6.50059 7.82305 7.16309 7.16211C7.82379 6.50121 8.1875 5.6217 8.1875 4.6875C8.18749 3.7533 7.8238 2.87534 7.16309 2.21289C6.50215 1.55039 5.62187 1.1875 4.6875 1.1875Z" fill="black" fill-opacity="0.85"/>
</svg>
